<svg xmlns="http://www.w3.org/2000/svg" width="27.932" height="27.932" viewBox="0 0 27.932 27.932"><defs><style>.a{fill:#555;}</style></defs><g transform="translate(5.985)"><path class="a" d="M103.4,0a1,1,0,0,0-1,1v2h2V1A1,1,0,0,0,103.4,0Z" transform="translate(-102.4)"/></g><g transform="translate(19.951)"><path class="a" d="M342.331,0a1,1,0,0,0-1,1v2h2V1A1,1,0,0,0,342.331,0Z" transform="translate(-341.333)"/></g><g transform="translate(0 2.993)"><path class="a" d="M24.939,51.2H21.947v3.99a1,1,0,1,1-2,0V51.2H7.981v3.99a1,1,0,1,1-2,0V51.2H2.993A2.993,2.993,0,0,0,0,54.193V73.147a2.993,2.993,0,0,0,2.993,2.993H24.939a2.993,2.993,0,0,0,2.993-2.993V54.193A2.993,2.993,0,0,0,24.939,51.2Zm1,21.947a1,1,0,0,1-1,1H2.993a1,1,0,0,1-1-1V60.178H25.937Z" transform="translate(0 -51.2)"/></g><g transform="translate(6.983 13.966)"><path class="a" d="M133.137,239.23a1,1,0,0,0-1.411,0l-7.275,7.275-3.285-3.285a1,1,0,1,0-1.411,1.412l3.99,3.99a1,1,0,0,0,1.411,0l7.981-7.981A1,1,0,0,0,133.137,239.23Z" transform="translate(-119.463 -238.938)"/></g></svg>