<svg xmlns="http://www.w3.org/2000/svg" width="32.022" height="31.426" viewBox="0 0 32.022 31.426"><defs><style>.a{fill:#555;}</style></defs><circle class="a" cx="1.5" cy="1.5" r="1.5" transform="translate(21.173 19.383)"/><path class="a" d="M45.307,35.219l-1.45-.7a.572.572,0,0,1-.318-.436l-.22-1.6-1.587.282a.572.572,0,0,1-.515-.166L40.1,31.442,38.987,32.6a.572.572,0,0,1-.515.166l-1.587-.282-.22,1.6a.572.572,0,0,1-.318.436l-1.448.7.759,1.419a.572.572,0,0,1,0,.54L34.9,38.6l1.45.7a.572.572,0,0,1,.318.436l.22,1.6,1.587-.282a.591.591,0,0,1,.1-.009.572.572,0,0,1,.412.175L40.1,42.373l1.116-1.161a.572.572,0,0,1,.515-.166l1.587.282.22-1.6a.572.572,0,0,1,.318-.436l1.448-.7-.759-1.419a.572.572,0,0,1,0-.54Zm-5.2,4.547a2.859,2.859,0,1,1,2.859-2.859A2.859,2.859,0,0,1,40.1,39.766Z" transform="translate(-17.231 -15.75)"/><path class="a" d="M48.4,50.632,46.522,50.3l-.669.7,4.211,4.255.189-.954a.572.572,0,0,1,.449-.449l.945-.189-3-3.04A.555.555,0,0,1,48.4,50.632Z" transform="translate(-21.921 -23.825)"/><path class="a" d="M35.264,50.632a.548.548,0,0,1-.249-.014l-3,3.04.945.189a.572.572,0,0,1,.449.449l.189.954L37.8,51l-.667-.7Z" transform="translate(-15.994 -23.825)"/><path class="a" d="M4,25.729H20.97l.306-.572-.306-.572H5.715a.572.572,0,0,1-.572-.572V5.715a.572.572,0,0,1,.572-.572H34.306a.572.572,0,0,1,.572.572v18.3a.572.572,0,0,1-.572.572H32.775l-.306.572.306.572h3.247V4H4Z" transform="translate(-4 -4)"/><path class="a" d="M22.349,24.411l1.711-.825.259-1.88a.572.572,0,0,1,.664-.485l1.872.332,1.315-1.369a.588.588,0,0,1,.825,0l1.315,1.369,1.878-.332a.572.572,0,0,1,.667.485l.259,1.88,1.709.826a.559.559,0,0,1,.268.743h.357V8H8V25.154H22.08a.559.559,0,0,1,.268-.743Zm-5.2-15.267H26.3v1.144H17.149Zm-2.287,2.287H28.585v1.144H14.862Zm-4.575,3.431H33.732v1.144H10.287Zm2.287,8.005H10.287V21.724h2.287Zm5.718,0H13.718V21.724h4.575Zm-8.005-3.431V18.293H33.732v1.144Z" transform="translate(-5.713 -5.713)"/></svg>